<svg width="123" height="61" viewBox="0 0 123 61" fill="none" xmlns="http://www.w3.org/2000/svg">
<path d="M38.9121 54V34.4H40.1161L49.2161 50.108H48.5721L57.6441 34.4H58.8201L58.8481 54H57.4481L57.4201 36.556H57.8121L49.2161 51.396H48.5161L39.8921 36.556H40.3121V54H38.9121ZM71.1696 54.112C69.695 54.112 68.3883 53.7947 67.2496 53.16C66.1296 52.5253 65.243 51.648 64.5896 50.528C63.955 49.408 63.6376 48.1293 63.6376 46.692C63.6376 45.236 63.9363 43.9573 64.5336 42.856C65.1496 41.736 65.9896 40.8587 67.0536 40.224C68.1176 39.5893 69.3123 39.272 70.6376 39.272C71.963 39.272 73.1483 39.58 74.1936 40.196C75.2576 40.812 76.0883 41.68 76.6856 42.8C77.3016 43.9013 77.6096 45.18 77.6096 46.636C77.6096 46.692 77.6003 46.7573 77.5816 46.832C77.5816 46.888 77.5816 46.9533 77.5816 47.028H64.6736V45.936H76.8256L76.2656 46.468C76.2843 45.3293 76.0416 44.312 75.5376 43.416C75.0523 42.5013 74.3896 41.792 73.5496 41.288C72.7096 40.7653 71.739 40.504 70.6376 40.504C69.555 40.504 68.5843 40.7653 67.7256 41.288C66.8856 41.792 66.223 42.5013 65.7376 43.416C65.2523 44.312 65.0096 45.3387 65.0096 46.496V46.748C65.0096 47.9427 65.271 49.0067 65.7936 49.94C66.335 50.8547 67.0723 51.5733 68.0056 52.096C68.939 52.6 70.003 52.852 71.1976 52.852C72.131 52.852 72.999 52.684 73.8016 52.348C74.623 52.012 75.3136 51.4987 75.8736 50.808L76.6856 51.732C76.051 52.516 75.2483 53.1133 74.2776 53.524C73.3256 53.916 72.2896 54.112 71.1696 54.112ZM83.0047 49.968L83.0327 48.204L92.6927 39.384H94.4847L88.0727 45.404L87.2327 46.104L83.0047 49.968ZM81.9407 54V33.224H83.3407V54H81.9407ZM93.3647 54L86.9807 45.992L87.9327 44.956L95.1007 54H93.3647ZM107.34 54V50.668L107.284 50.164V44.676C107.284 43.3133 106.911 42.2773 106.164 41.568C105.436 40.8587 104.363 40.504 102.944 40.504C101.936 40.504 100.993 40.6813 100.116 41.036C99.2575 41.372 98.5202 41.8107 97.9042 42.352L97.2042 41.344C97.9322 40.6907 98.8095 40.1867 99.8362 39.832C100.863 39.4587 101.936 39.272 103.056 39.272C104.867 39.272 106.257 39.7293 107.228 40.644C108.199 41.5587 108.684 42.9213 108.684 44.732V54H107.34ZM102.076 54.112C100.993 54.112 100.051 53.944 99.2482 53.608C98.4642 53.2533 97.8575 52.7587 97.4282 52.124C97.0175 51.4893 96.8122 50.7613 96.8122 49.94C96.8122 49.1933 96.9802 48.5213 97.3162 47.924C97.6708 47.308 98.2495 46.8133 99.0522 46.44C99.8548 46.048 100.928 45.852 102.272 45.852H107.648V46.944H102.3C100.788 46.944 99.7242 47.224 99.1082 47.784C98.5108 48.344 98.2122 49.044 98.2122 49.884C98.2122 50.8173 98.5668 51.564 99.2762 52.124C99.9855 52.684 100.984 52.964 102.272 52.964C103.504 52.964 104.54 52.684 105.38 52.124C106.239 51.564 106.873 50.752 107.284 49.688L107.676 50.64C107.284 51.704 106.612 52.5533 105.66 53.188C104.727 53.804 103.532 54.112 102.076 54.112ZM114.452 54V39.384H115.796V43.388L115.656 42.94C116.067 41.764 116.758 40.8587 117.728 40.224C118.699 39.5893 119.912 39.272 121.368 39.272V40.644C121.312 40.644 121.256 40.644 121.2 40.644C121.144 40.6253 121.088 40.616 121.032 40.616C119.408 40.616 118.139 41.1293 117.224 42.156C116.31 43.164 115.852 44.5733 115.852 46.384V54H114.452Z" fill="black"/>
<path d="M27.9882 5.65129L3.46275 4.68466C2.56306 4.6492 1.8611 5.44469 2.01839 6.32145L5.66279 26.6352C5.77871 27.2814 6.33419 27.7608 6.99725 27.7869L30.0433 28.6952C30.9027 28.7291 31.5919 28.0014 31.5015 27.1556L29.3365 6.90008C29.2628 6.21072 28.6886 5.67889 27.9882 5.65129Z" fill="#D24D50"/>
<path d="M6.00035 31.9912L30.3537 31.2502C30.6149 31.2605 30.882 31.3327 31.0447 31.5352C33.5534 34.6589 26.5301 52.0311 25.5931 52.7068C24.8552 53.2389 9.82448 53.135 1.32346 53.0018C0.612075 52.9907 0.0270138 52.4593 0.047746 51.7561C0.187927 47.0015 2.79377 40.12 4.50035 34.4912C4.68407 33.8852 5.36088 31.966 6.00035 31.9912Z" fill="#50AEC3"/>
<path d="M37 5.65132C35.2276 6.29624 34.1483 19.1912 34.0003 27.1556C33.9895 27.739 34.4109 28.4641 35.0003 28.4912C38.9018 28.6703 50.9742 26.7374 57.2325 25.4043C57.366 25.3759 57.4926 25.3345 57.5935 25.2436C59.462 23.5621 61.2269 10.8034 61.9885 3.60123C62.0528 2.99318 61.7048 2.43434 61.0912 2.35836C56.069 1.73647 39.1268 4.87742 37 5.65132Z" fill="#F1C946"/>
</svg>
